PathFileType	4	(X/Y/Z)	./trials/Ivanov/data/jump_js_1.trc
DataRate	CameraRate	NumFrames	NumMarkers	Units	OrigDataRate	OrigDataStartFrame	OrigNumFrames
400	400	4	71	mm	400	92	364
Frame#	Time	r_illiac			r_troch			r_asis			l_illiac			l_troch			l_asis			r_psis			sacrum			l_psis			r_thigh1			r_thigh2			r_thigh3			r_thigh4			rl_knee			rm_knee			r_shank1			r_shank2			r_shank3			r_shank4			r_heel			rl_ankle			rm_ankle			r_metatarsal5			r_metatarsal1			l_thigh1			l_thigh2			l_thigh3			l_thigh4			ll_knee			lm_knee			l_shank1			l_shank2			l_shank3			l_shank4			l_heel			ll_ankle			lm_ankle			l_metatarsal5			l_metatarsal1			back_down			neck			back_right			back_left			head_up			head_front			head_left			head_right			r_shoulder			r_humerus1			r_humerus2			r_humerus3			rl_elbow			rm_elbow			r_radius1			r_radius2			r_radius3			rl_wrist			rm_wrist			r_hand			l_shoulder			l_humerus1			l_humerus2			l_humerus3			ll_elbow			lm_elbow			l_radius1			l_radius2			l_radius3			ll_wrist			lm_wrist			l_hand		
		X1	Y1	Z1	X2	Y2	Z2	X3	Y3	Z3	X4	Y4	Z4	X5	Y5	Z5	X6	Y6	Z6	X7	Y7	Z7	X8	Y8	Z8	X9	Y9	Z9	X10	Y10	Z10	X11	Y11	Z11	X12	Y12	Z12	X13	Y13	Z13	X14	Y14	Z14	X15	Y15	Z15	X16	Y16	Z16	X17	Y17	Z17	X18	Y18	Z18	X19	Y19	Z19	X20	Y20	Z20	X21	Y21	Z21	X22	Y22	Z22	X23	Y23	Z23	X24	Y24	Z24	X25	Y25	Z25	X26	Y26	Z26	X27	Y27	Z27	X28	Y28	Z28	X29	Y29	Z29	X30	Y30	Z30	X31	Y31	Z31	X32	Y32	Z32	X33	Y33	Z33	X34	Y34	Z34	X35	Y35	Z35	X36	Y36	Z36	X37	Y37	Z37	X38	Y38	Z38	X39	Y39	Z39	X40	Y40	Z40	X41	Y41	Z41	X42	Y42	Z42	X43	Y43	Z43	X44	Y44	Z44	X45	Y45	Z45	X46	Y46	Z46	X47	Y47	Z47	X48	Y48	Z48	X49	Y49	Z49	X50	Y50	Z50	X51	Y51	Z51	X52	Y52	Z52	X53	Y53	Z53	X54	Y54	Z54	X55	Y55	Z55	X56	Y56	Z56	X57	Y57	Z57	X58	Y58	Z58	X59	Y59	Z59	X60	Y60	Z60	X61	Y61	Z61	X62	Y62	Z62	X63	Y63	Z63	X64	Y64	Z64	X65	Y65	Z65	X66	Y66	Z66	X67	Y67	Z67	X68	Y68	Z68	X69	Y69	Z69	X70	Y70	Z70	X71	Y71	Z71
92	0.2275	-404.755	739.098	559.152	-468.719	616.675	621.920	-383.130	671.749	531.738	-415.945	738.841	229.917	-473.224	662.171	180.958	-391.291	672.069	269.429	-535.056	782.296	456.728	-506.000	808.642	396.269	-541.312	782.907	343.716	-391.428	528.819	600.847	-357.451	597.547	609.535	-250.031	533.461	624.247	-279.711	472.787	613.226	-103.979	431.334	613.764	-118.460	422.486	478.994	-199.689	350.388	615.731	-138.792	314.643	607.137	-203.569	224.255	601.216	-252.311	258.420	608.486	-405.729	82.980	532.558	-351.300	103.697	576.315	-323.761	98.182	483.787	-197.254	35.725	602.930	-187.403	38.819	509.587	-376.332	550.330	182.871	-337.925	614.535	194.168	-234.511	552.727	170.562	-261.264	499.779	160.768	-132.861	436.332	160.279	-109.036	404.850	286.687	-209.056	327.558	145.403	-144.928	293.157	174.520	-208.895	205.283	183.173	-259.639	231.563	161.897	-418.481	75.909	222.693	-355.510	102.053	185.306	-325.006	104.041	280.649	-207.313	35.907	164.260	-191.157	38.665	240.825	-348.384	870.924	392.550	-38.073	954.804	382.954	-182.087	928.565	480.379	-199.237	925.440	302.735	219.334	1009.748	371.525	237.473	858.272	347.319	142.579	931.675	271.598	176.595	918.873	465.058	29.836	859.566	555.887	-113.322	741.390	650.206	-70.528	845.319	721.508	-147.034	776.903	744.931	-204.551	755.442	775.586	-257.039	845.115	740.831	-280.052	733.470	661.030	-312.302	704.644	784.769	-362.919	690.956	697.634	-451.215	750.498	634.637	-420.958	660.383	660.333	-407.592	702.560	614.318	23.318	876.839	219.126	-116.975	751.361	133.740	-83.483	842.586	45.068	-160.999	775.838	40.969	-233.888	757.630	-11.023	-276.158	853.203	29.587	-281.657	805.400	105.023	-278.242	700.272	42.845	-349.088	731.528	112.467	-435.778	747.177	175.480	-431.296	663.409	135.609	-406.107	705.215	185.067
93	0.2300	-404.764	739.237	559.100	-468.722	616.805	621.811	-382.935	672.069	531.836	-415.988	738.970	229.807	-473.096	662.200	180.916	-391.291	672.215	269.245	-535.078	782.450	456.661	-506.009	808.785	396.185	-541.347	783.061	343.614	-391.409	528.935	600.785	-357.378	597.567	609.460	-250.033	533.588	624.184	-280.445	472.368	613.369	-104.010	431.284	613.707	-118.466	422.411	478.955	-199.711	350.379	615.667	-138.815	314.644	607.119	-203.605	224.205	601.178	-252.341	258.425	608.427	-405.761	82.954	532.554	-351.323	103.645	576.277	-323.777	98.141	483.764	-197.306	35.730	602.932	-187.402	38.824	509.587	-376.330	550.415	182.819	-337.913	614.590	194.120	-234.501	552.737	170.512	-261.258	499.813	160.747	-132.906	436.306	160.264	-110.356	404.375	286.659	-209.048	327.516	145.364	-144.967	293.100	174.536	-208.886	205.247	183.184	-259.663	231.493	161.888	-418.781	75.641	222.806	-355.546	101.999	185.277	-325.047	104.014	280.637	-207.321	35.936	164.254	-191.187	38.644	240.835	-348.344	871.011	392.489	-38.015	954.683	382.823	-181.998	928.540	480.281	-199.080	925.387	302.639	219.254	1009.791	371.520	237.518	858.347	347.332	142.579	931.613	271.583	176.530	918.874	465.055	29.881	859.442	555.824	-113.312	741.370	650.183	-70.525	845.350	721.435	-147.073	776.967	744.907	-204.575	755.548	775.562	-257.037	845.238	740.746	-280.032	733.557	660.981	-312.323	704.765	784.723	-362.959	690.979	697.590	-451.166	750.655	634.529	-420.944	660.468	660.269	-407.508	702.698	614.300	23.457	876.581	219.062	-116.915	751.224	133.609	-83.380	842.493	45.025	-160.990	775.754	40.863	-233.852	757.666	-11.131	-276.072	853.265	29.545	-281.594	805.423	104.922	-278.204	700.315	42.717	-349.047	731.575	112.352	-435.745	747.258	175.352	-431.299	663.359	135.535	-406.120	705.304	184.981
94	0.2325	-404.736	739.310	559.036	-468.711	616.904	621.725	-382.880	672.062	531.747	-416.016	739.094	229.702	-473.071	662.287	180.815	-391.382	672.327	269.139	-535.071	782.618	456.584	-506.035	808.943	396.106	-541.381	783.214	343.493	-391.383	529.000	600.687	-357.360	597.655	609.388	-250.050	533.610	624.101	-280.453	472.363	613.266	-104.011	431.182	613.628	-118.471	422.363	478.893	-199.721	350.323	615.622	-138.857	314.624	607.074	-203.634	224.203	601.171	-252.357	258.434	608.407	-405.781	82.898	532.537	-351.319	103.594	576.259	-323.812	98.112	483.749	-197.313	35.767	602.937	-187.413	38.827	509.585	-376.288	550.484	182.750	-337.887	614.638	194.032	-234.469	552.810	170.477	-261.256	499.855	160.728	-132.925	436.263	160.246	-110.864	404.107	286.706	-209.073	327.444	145.347	-144.982	293.062	174.559	-208.903	205.176	183.176	-259.658	231.443	161.871	-418.879	75.562	222.816	-355.551	101.960	185.256	-325.086	103.982	280.603	-207.334	35.921	164.268	-191.204	38.667	240.830	-348.283	871.122	392.423	-37.929	954.489	382.686	-181.909	928.480	480.188	-198.925	925.327	302.561	219.112	1009.847	371.515	237.547	858.303	347.344	142.536	931.595	271.578	176.464	918.899	465.049	29.932	859.260	555.740	-113.348	741.348	650.175	-70.488	845.362	721.361	-147.085	777.027	744.878	-204.578	755.668	775.536	-257.037	845.340	740.661	-279.994	733.654	660.929	-312.344	704.918	784.690	-362.938	690.982	697.525	-451.104	750.786	634.443	-421.006	660.594	660.168	-407.434	702.801	614.210	23.580	876.325	219.015	-116.882	751.065	133.488	-83.306	842.408	44.963	-160.931	775.754	40.770	-233.799	757.772	-11.261	-275.986	853.319	29.503	-281.529	805.459	104.810	-278.183	700.330	42.602	-349.020	731.626	112.279	-435.700	747.341	175.206	-431.281	663.425	135.374	-406.126	705.377	184.878
95	0.2350	-404.716	739.444	558.996	-468.692	617.048	621.659	-382.847	672.103	531.638	-416.039	739.243	229.599	-473.098	662.378	180.721	-391.354	672.511	268.913	-535.054	782.796	456.493	-506.021	809.090	396.025	-541.385	783.371	343.397	-391.338	529.036	600.597	-357.314	597.714	609.342	-250.000	533.620	624.010	-280.473	472.421	613.172	-104.031	431.186	613.591	-118.546	422.230	478.785	-199.768	350.312	615.568	-138.890	314.597	607.045	-203.653	224.190	601.133	-252.424	258.341	608.329	-405.813	82.838	532.516	-351.376	103.583	576.233	-323.848	98.055	483.735	-197.310	35.768	602.923	-187.429	38.797	509.567	-376.256	550.517	182.696	-337.825	614.713	193.955	-234.482	552.826	170.434	-261.267	499.881	160.740	-132.959	436.251	160.213	-110.526	404.372	286.635	-209.085	327.333	145.314	-144.997	292.988	174.560	-208.990	205.112	183.200	-259.686	231.396	161.822	-418.932	75.440	222.791	-355.582	101.884	185.244	-325.152	103.964	280.585	-207.341	35.944	164.273	-191.233	38.669	240.837	-348.257	871.236	392.375	-37.868	954.331	382.575	-181.817	928.437	480.110	-198.762	925.270	302.457	218.961	1009.934	371.523	237.530	858.604	347.369	142.454	931.601	271.557	176.369	918.969	465.036	29.998	859.096	555.671	-113.365	741.314	650.180	-70.472	845.391	721.271	-147.066	777.091	744.836	-204.614	755.777	775.525	-257.036	845.457	740.568	-279.986	733.756	660.878	-312.366	705.050	784.655	-362.866	691.041	697.514	-451.025	750.952	634.354	-420.978	660.585	660.074	-407.384	702.871	614.118	23.714	876.030	218.977	-116.895	750.947	133.398	-83.231	842.317	44.904	-160.912	775.704	40.658	-233.763	757.822	-11.393	-275.892	853.391	29.474	-281.465	805.477	104.748	-278.151	700.359	42.462	-348.970	731.675	112.177	-435.669	747.414	175.079	-431.264	663.496	135.245	-406.111	705.492	184.760
